<?xml version="1.0" encoding="utf-8"?>
<!-- Generator: Adobe Illustrator 23.0.5, SVG Export Plug-In . SVG Version: 6.00 Build 0)  -->
<svg version="1.1" id="Layer_1" xmlns="http://www.w3.org/2000/svg" xmlns:xlink="http://www.w3.org/1999/xlink" x="0px" y="0px"
	 viewBox="0 0 335 381.1" style="enable-background:new 0 0 335 381.1;" xml:space="preserve">
<style type="text/css">
	
		.st0{opacity:0.2;fill:#241228;stroke:#241228;stroke-width:6;stroke-linecap:round;stroke-linejoin:round;stroke-miterlimit:10;enable-background:new    ;}
	.st1{fill:#EB6331;}
	.st2{fill:#DD562C;}
	.st3{fill:none;stroke:#511C64;stroke-width:6;stroke-linecap:round;stroke-linejoin:round;stroke-miterlimit:10;}
	.st4{fill:#FDA22F;}
	.st5{fill:#FC9435;}
	.st6{fill:#FFB331;}
	.st7{fill:#A5F3FF;}
	.st8{fill:#511C64;}
	.st9{opacity:0.2;fill:#511C64;enable-background:new    ;}
	.st10{opacity:0.2;}
	.st11{opacity:0.43;fill:#D2FCFB;enable-background:new    ;}
	.st12{fill:#FC9435;stroke:#FC9435;stroke-width:6;stroke-miterlimit:10;}
	.st13{fill:#FF82A0;}
	.st14{fill:#B078FD;}
	.st15{fill:#A270F2;}
	.st16{fill:none;stroke:#FFFFFF;stroke-width:3;stroke-linecap:round;stroke-linejoin:round;stroke-miterlimit:10;}
	.st17{fill:#F27095;}
</style>
<path id="XMLID_2_" class="st0" d="M287,378.1H35c-17.7,0-32-14.3-32-32V45c0-17.7,14.3-32,32-32h252c17.7,0,32,14.3,32,32v301.1
	C319,363.8,304.7,378.1,287,378.1z"/>
<path id="XMLID_17_" class="st1" d="M300,360.7H48c-17.7,0-32-14.3-32-32V58c0-17.7,14.3-32,32-32h252c17.7,0,32,14.3,32,32v270.7
	C332,346.4,317.7,360.7,300,360.7z"/>
<path id="XMLID_27_" class="st2" d="M300,345.7H48c-17.7,0-32-14.3-32-32v15c0,17.7,14.3,32,32,32h252c17.7,0,32-14.3,32-32v-15
	C332,331.4,317.7,345.7,300,345.7z"/>
<path id="XMLID_16_" class="st3" d="M300,360.7H48c-17.7,0-32-14.3-32-32V58c0-17.7,14.3-32,32-32h252c17.7,0,32,14.3,32,32v270.7
	C332,346.4,317.7,360.7,300,360.7z"/>
<path id="XMLID_9_" class="st4" d="M300,337.7H48c-17.7,0-32-14.3-32-32V35C16,17.3,30.3,3,48,3h252c17.7,0,32,14.3,32,32v270.7
	C332,323.4,317.7,337.7,300,337.7z"/>
<path id="XMLID_15_" class="st4" d="M300,337.7H48c-17.7,0-32-14.3-32-32V35C16,17.3,30.3,3,48,3h252c17.7,0,32,14.3,32,32v270.7
	C332,323.4,317.7,337.7,300,337.7z"/>
<path id="XMLID_25_" class="st5" d="M34.7,305.7V35c0-17.7,14.3-32,32-32H48C30.3,3,16,17.3,16,35v270.7c0,17.7,14.3,32,32,32h18.7
	C49,337.7,34.7,323.4,34.7,305.7z"/>
<path id="XMLID_24_" class="st6" d="M300,3h-18.7c17.7,0,32,14.3,32,32v270.7c0,17.7-14.3,32-32,32H300c17.7,0,32-14.3,32-32V35
	C332,17.3,317.7,3,300,3z"/>
<path id="XMLID_1_" class="st3" d="M300,337.7H48c-17.7,0-32-14.3-32-32V35C16,17.3,30.3,3,48,3h252c17.7,0,32,14.3,32,32v270.7
	C332,323.4,317.7,337.7,300,337.7z"/>
<path id="XMLID_11_" class="st7" d="M286,108.7H62c-4.4,0-8-3.6-8-8v-52c0-4.4,3.6-8,8-8h224c4.4,0,8,3.6,8,8v52
	C294,105.1,290.4,108.7,286,108.7z"/>
<g id="XMLID_47_">
	<polygon id="XMLID_73_" class="st8" points="257.3,57.2 255.4,55.2 257.3,53.3 272,53.3 273.9,54.9 271.9,57.2 	"/>
	<polygon id="XMLID_72_" class="st9" points="252.9,72.4 252.9,57.7 254.8,55.8 256.7,57.7 256.7,72.4 254.8,74.3 	"/>
	<polygon id="XMLID_71_" class="st8" points="272.5,72.4 272.5,57.7 274.4,55.4 276.3,57.7 276.3,72.4 274.4,74.3 	"/>
	<polygon id="XMLID_70_" class="st9" points="257.3,76.7 255.4,74.8 257.3,72.9 271.9,72.9 273.9,74.8 271.9,76.7 	"/>
	<polygon id="XMLID_69_" class="st9" points="252.9,92.3 252.9,77.6 254.8,75.7 256.7,77.6 256.7,92.3 254.8,94.2 	"/>
	<polygon id="XMLID_68_" class="st8" points="272.5,92.3 272.5,77.6 274.4,75.4 276.3,77.6 276.3,92.3 274.4,94.2 	"/>
	<polygon id="XMLID_67_" class="st9" points="257.3,96.7 255.4,94.7 257.3,92.8 271.9,92.8 273.9,94.7 271.9,96.7 	"/>
</g>
<g id="XMLID_54_">
	<polygon id="XMLID_74_" class="st8" points="222.7,57.2 220.7,55.2 222.7,53.3 237.3,53.3 239.2,54.9 237.3,57.2 	"/>
	<polygon id="XMLID_65_" class="st9" points="218.3,72.4 218.3,57.7 220.2,55.8 222.1,57.7 222.1,72.4 220.2,74.3 	"/>
	<polygon id="XMLID_64_" class="st8" points="237.9,72.4 237.9,57.7 239.8,55.4 241.7,57.7 241.7,72.4 239.8,74.3 	"/>
	<polygon id="XMLID_63_" class="st8" points="222.7,76.7 220.7,74.8 222.7,72.9 237.3,72.9 239.2,74.8 237.3,76.7 	"/>
	<polygon id="XMLID_62_" class="st9" points="218.3,92.3 218.3,77.6 220.2,75.7 222.1,77.6 222.1,92.3 220.2,94.2 	"/>
	<polygon id="XMLID_57_" class="st8" points="237.9,92.3 237.9,77.6 239.8,75.4 241.7,77.6 241.7,92.3 239.8,94.2 	"/>
	<polygon id="XMLID_55_" class="st8" points="222.7,96.7 220.7,94.7 222.7,92.8 237.3,92.8 239.2,94.7 237.3,96.7 	"/>
</g>
<g id="XMLID_83_" class="st10">
	<polygon id="XMLID_90_" class="st8" points="153.2,57.2 151.3,55.2 153.2,53.3 167.9,53.3 169.8,54.9 167.9,57.2 	"/>
	<polygon id="XMLID_89_" class="st8" points="148.8,72.4 148.8,57.7 150.8,55.8 152.7,57.7 152.7,72.4 150.8,74.3 	"/>
	<polygon id="XMLID_88_" class="st8" points="168.4,72.4 168.4,57.7 170.3,55.4 172.3,57.7 172.3,72.4 170.3,74.3 	"/>
	<polygon id="XMLID_87_" class="st8" points="153.2,76.7 151.3,74.8 153.2,72.9 167.9,72.9 169.8,74.8 167.9,76.7 	"/>
	<polygon id="XMLID_86_" class="st8" points="148.8,92.3 148.8,77.6 150.8,75.7 152.7,77.6 152.7,92.3 150.8,94.2 	"/>
	<polygon id="XMLID_85_" class="st8" points="168.4,92.3 168.4,77.6 170.3,75.4 172.3,77.6 172.3,92.3 170.3,94.2 	"/>
	<polygon id="XMLID_84_" class="st8" points="153.2,96.7 151.3,94.7 153.2,92.8 167.9,92.8 169.8,94.7 167.9,96.7 	"/>
</g>
<g id="XMLID_76_" class="st10">
	<polygon id="XMLID_107_" class="st8" points="187.9,57.2 186,55.2 187.9,53.3 202.6,53.3 204.5,54.9 202.5,57.2 	"/>
	<polygon id="XMLID_82_" class="st8" points="183.5,72.4 183.5,57.7 185.4,55.8 187.4,57.7 187.4,72.4 185.4,74.3 	"/>
	<polygon id="XMLID_81_" class="st8" points="203.1,72.4 203.1,57.7 205,55.4 207,57.7 207,72.4 205,74.3 	"/>
	<polygon id="XMLID_80_" class="st8" points="187.9,76.7 186,74.8 187.9,72.9 202.6,72.9 204.5,74.8 202.6,76.7 	"/>
	<polygon id="XMLID_79_" class="st8" points="183.5,92.3 183.5,77.6 185.4,75.7 187.4,77.6 187.4,92.3 185.4,94.2 	"/>
	<polygon id="XMLID_78_" class="st8" points="203.1,92.3 203.1,77.6 205,75.4 207,77.6 207,92.3 205,94.2 	"/>
	<polygon id="XMLID_77_" class="st8" points="187.9,96.7 186,94.7 187.9,92.8 202.6,92.8 204.5,94.7 202.6,96.7 	"/>
</g>
<g id="XMLID_91_" class="st10">
	<polygon id="XMLID_98_" class="st8" points="83.9,57.2 81.9,55.2 83.9,53.3 98.5,53.3 100.4,54.9 98.5,57.2 	"/>
	<polygon id="XMLID_97_" class="st8" points="79.5,72.4 79.5,57.7 81.4,55.8 83.3,57.7 83.3,72.4 81.4,74.3 	"/>
	<polygon id="XMLID_96_" class="st8" points="99.1,72.4 99.1,57.7 101,55.4 102.9,57.7 102.9,72.4 101,74.3 	"/>
	<polygon id="XMLID_95_" class="st8" points="83.9,76.7 81.9,74.8 83.9,72.9 98.5,72.9 100.4,74.8 98.5,76.7 	"/>
	<polygon id="XMLID_94_" class="st8" points="79.5,92.3 79.5,77.6 81.4,75.7 83.3,77.6 83.3,92.3 81.4,94.2 	"/>
	<polygon id="XMLID_93_" class="st8" points="99.1,92.3 99.1,77.6 101,75.4 102.9,77.6 102.9,92.3 101,94.2 	"/>
	<polygon id="XMLID_92_" class="st8" points="83.9,96.7 81.9,94.7 83.9,92.8 98.5,92.8 100.4,94.7 98.5,96.7 	"/>
</g>
<g id="XMLID_99_" class="st10">
	<polygon id="XMLID_106_" class="st8" points="118.5,57.2 116.6,55.2 118.5,53.3 133.2,53.3 135.1,54.9 133.2,57.2 	"/>
	<polygon id="XMLID_105_" class="st8" points="114.2,72.4 114.2,57.7 116.1,55.8 118,57.7 118,72.4 116.1,74.3 	"/>
	<polygon id="XMLID_104_" class="st8" points="133.7,72.4 133.7,57.7 135.7,55.4 137.6,57.7 137.6,72.4 135.7,74.3 	"/>
	<polygon id="XMLID_103_" class="st8" points="118.5,76.7 116.6,74.8 118.5,72.9 133.2,72.9 135.1,74.8 133.2,76.7 	"/>
	<polygon id="XMLID_102_" class="st8" points="114.2,92.3 114.2,77.6 116.1,75.7 118,77.6 118,92.3 116.1,94.2 	"/>
	<polygon id="XMLID_101_" class="st8" points="133.7,92.3 133.7,77.6 135.7,75.4 137.6,77.6 137.6,92.3 135.7,94.2 	"/>
	<polygon id="XMLID_100_" class="st8" points="118.5,96.7 116.6,94.7 118.5,92.8 133.2,92.8 135.1,94.7 133.2,96.7 	"/>
</g>
<path id="XMLID_42_" class="st11" d="M286,62.7H62c-4.4,0-8-3.6-8-8v-6c0-4.4,3.6-8,8-8h224c4.4,0,8,3.6,8,8v6
	C294,59.1,290.4,62.7,286,62.7z"/>
<path id="XMLID_3_" class="st3" d="M286,108.7H62c-4.4,0-8-3.6-8-8v-52c0-4.4,3.6-8,8-8h224c4.4,0,8,3.6,8,8v52
	C294,105.1,290.4,108.7,286,108.7z"/>
<path id="XMLID_41_" class="st12" d="M103,209.5H55c-4.4,0-8-3.6-8-8v-48c0-4.4,3.6-8,8-8h48c4.4,0,8,3.6,8,8v48
	C111,206,107.4,209.5,103,209.5z"/>
<path id="XMLID_43_" class="st12" d="M191.6,209.5h-48c-4.4,0-8-3.6-8-8v-48c0-4.4,3.6-8,8-8h48c4.4,0,8,3.6,8,8v48
	C199.6,206,196,209.5,191.6,209.5z"/>
<path id="XMLID_45_" class="st12" d="M103,298H55c-4.4,0-8-3.6-8-8v-48c0-4.4,3.6-8,8-8h48c4.4,0,8,3.6,8,8v48
	C111,294.5,107.4,298,103,298z"/>
<path id="XMLID_44_" class="st12" d="M191.6,298h-48c-4.4,0-8-3.6-8-8v-48c0-4.4,3.6-8,8-8h48c4.4,0,8,3.6,8,8v48
	C199.6,294.5,196,298,191.6,298z"/>
<path id="XMLID_46_" class="st12" d="M279.6,298h-48c-4.4,0-8-3.6-8-8V153.5c0-4.4,3.6-8,8-8h48c4.4,0,8,3.6,8,8V290
	C287.6,294.5,284,298,279.6,298z"/>
<path id="XMLID_19_" class="st13" d="M198,203.5h-48c-4.4,0-8-3.6-8-8v-48c0-4.4,3.6-8,8-8h48c4.4,0,8,3.6,8,8v48
	C206,200,202.4,203.5,198,203.5z"/>
<g>
	<path id="XMLID_14_" class="st14" d="M286,291.5h-48c-4.4,0-8-3.6-8-8v-136c0-4.4,3.6-8,8-8h48c4.4,0,8,3.6,8,8v136
		C294,288,290.4,291.5,286,291.5z"/>
	<path id="XMLID_56_" class="st15" d="M241.9,284.5c-2.1,0-3.9-1.7-3.9-3.9V139.5c-4.4,0-8,3.6-8,8v136c0,4.4,3.6,8,8,8h48
		c4.1,0,7.4-3.1,7.9-7H241.9z"/>
	<path id="XMLID_8_" class="st3" d="M286,291.5h-48c-4.4,0-8-3.6-8-8v-136c0-4.4,3.6-8,8-8h48c4.4,0,8,3.6,8,8v136
		C294,288,290.4,291.5,286,291.5z"/>
	<g id="XMLID_29_">
		<rect id="XMLID_38_" x="247.6" y="202.7" class="st8" width="28.8" height="7.2"/>
		<rect id="XMLID_39_" x="247.6" y="213.5" class="st8" width="28.8" height="7.2"/>
	</g>
	<path id="XMLID_50_" class="st16" d="M273.4,148.2h4.8c3.7,0,6.7,3,6.7,6.7v19.7"/>
</g>
<g>
	<path id="XMLID_59_" class="st17" d="M153.9,196.5c-2.1,0-3.9-1.7-3.9-3.9v-53.1c-4.4,0-8,3.6-8,8v48c0,4.4,3.6,8,8,8h48
		c4.1,0,7.4-3.1,7.9-7H153.9z"/>
	<path id="XMLID_7_" class="st3" d="M198,203.5h-48c-4.4,0-8-3.6-8-8v-48c0-4.4,3.6-8,8-8h48c4.4,0,8,3.6,8,8v48
		C206,200,202.4,203.5,198,203.5z"/>
	<rect id="XMLID_30_" x="161.4" y="168.4" class="st8" width="25.1" height="6.3"/>
	<path id="XMLID_49_" class="st16" d="M190.2,148.2h2.2c2.5,0,4.6,2.1,4.6,4.6v6.9"/>
</g>
<g>
	<path id="XMLID_10_" class="st13" d="M110,203.5H62c-4.4,0-8-3.6-8-8v-48c0-4.4,3.6-8,8-8h48c4.4,0,8,3.6,8,8v48
		C118,200,114.4,203.5,110,203.5z"/>
	<path id="XMLID_60_" class="st17" d="M65.9,196.5c-2.1,0-3.9-1.7-3.9-3.9v-53.1c-4.4,0-8,3.6-8,8v48c0,4.4,3.6,8,8,8h48
		c4.1,0,7.4-3.1,7.9-7H65.9z"/>
	<path id="XMLID_5_" class="st3" d="M110,203.5H62c-4.4,0-8-3.6-8-8v-48c0-4.4,3.6-8,8-8h48c4.4,0,8,3.6,8,8v48
		C118,200,114.4,203.5,110,203.5z"/>
	<g id="XMLID_37_">
		<rect id="XMLID_21_" x="72" y="168.4" class="st8" width="25.1" height="6.3"/>
		<rect id="XMLID_22_" x="81.4" y="159" class="st8" width="6.3" height="25.1"/>
	</g>
	<path id="XMLID_48_" class="st16" d="M101.7,148.2h2.2c2.5,0,4.6,2.1,4.6,4.6v6.9"/>
</g>
<g>
	<path id="XMLID_18_" class="st13" d="M110,291.5H62c-4.4,0-8-3.6-8-8v-48c0-4.4,3.6-8,8-8h48c4.4,0,8,3.6,8,8v48
		C118,288,114.4,291.5,110,291.5z"/>
	<path id="XMLID_61_" class="st17" d="M65.9,284.5c-2.1,0-3.9-1.7-3.9-3.9v-53.1c-4.4,0-8,3.6-8,8v48c0,4.4,3.6,8,8,8h48
		c4.1,0,7.4-3.1,7.9-7H65.9z"/>
	<path id="XMLID_13_" class="st3" d="M110,291.5H62c-4.4,0-8-3.6-8-8v-48c0-4.4,3.6-8,8-8h48c4.4,0,8,3.6,8,8v48
		C118,288,114.4,291.5,110,291.5z"/>
	<g id="XMLID_36_">
		
			<rect id="XMLID_32_" x="82.8" y="247" transform="matrix(0.7071 -0.7071 0.7071 0.7071 -158.3253 136.7908)" class="st8" width="6.3" height="25.1"/>
		
			<rect id="XMLID_31_" x="73.5" y="256.4" transform="matrix(0.7071 -0.7071 0.7071 0.7071 -158.3042 136.8369)" class="st8" width="25.1" height="6.3"/>
	</g>
	<path id="XMLID_40_" class="st16" d="M101.7,236.9h2.2c2.5,0,4.6,2.1,4.6,4.6v6.9"/>
</g>
<g>
	<path id="XMLID_20_" class="st13" d="M198,291.5h-48c-4.4,0-8-3.6-8-8v-48c0-4.4,3.6-8,8-8h48c4.4,0,8,3.6,8,8v48
		C206,288,202.4,291.5,198,291.5z"/>
	<path id="XMLID_58_" class="st17" d="M153.9,284.5c-2.1,0-3.9-1.7-3.9-3.9v-53.1c-4.4,0-8,3.6-8,8v48c0,4.4,3.6,8,8,8h48
		c4.1,0,7.4-3.1,7.9-7H153.9z"/>
	<path id="XMLID_12_" class="st3" d="M198,291.5h-48c-4.4,0-8-3.6-8-8v-48c0-4.4,3.6-8,8-8h48c4.4,0,8,3.6,8,8v48
		C206,288,202.4,291.5,198,291.5z"/>
	<g id="XMLID_35_">
		<rect id="XMLID_34_" x="161.4" y="256.4" class="st8" width="25.1" height="6.3"/>
		<rect id="XMLID_33_" x="170.9" y="265.8" class="st8" width="6.3" height="6.3"/>
		<rect id="XMLID_23_" x="170.8" y="246.9" class="st8" width="6.3" height="6.3"/>
	</g>
	<path id="XMLID_4_" class="st16" d="M190.2,236.9h2.2c2.5,0,4.6,2.1,4.6,4.6v6.9"/>
</g>
</svg>
